{
  "accessors": [
    {
      "bufferView": 2,
      "componentType": 5126,
      "count": 13482,
      "max": [
        2.1246488094329834,
        0.0899067372083664,
        0.99930340051651
      ],
      "min": [
        -2.124577045440674,
        -0.11521013081073761,
        -0.99930340051651
      ],
      "type": "VEC3"
    },
    {
      "bufferView": 2,
      "byteOffset": 161784,
      "componentType": 5126,
      "count": 13482,
      "max": [
        1.0,
        1.0,
        1.0
      ],
      "min": [
        -1.0,
        -1.0,
        -1.0
      ],
      "type": "VEC3"
    },
    {
      "bufferView": 1,
      "componentType": 5126,
      "count": 13482,
      "max": [
        1.0,
        1.0000001192092896
      ],
      "min": [
        0.0,
        0.0
      ],
      "type": "VEC2"
    },
    {
      "bufferView": 0,
      "componentType": 5125,
      "count": 73566,
      "type": "SCALAR"
    },
    {
      "bufferView": 2,
      "byteOffset": 323568,
      "componentType": 5126,
      "count": 250,
      "max": [
        -1.7759379148483276,
        0.026621079072356224,
        0.12808674573898315
      ],
      "min": [
        -2.124577045440674,
        -0.026621079072356224,
        -0.12808674573898315
      ],
      "type": "VEC3"
    },
    {
      "bufferView": 2,
      "byteOffset": 326568,
      "componentType": 5126,
      "count": 250,
      "max": [
        4.1837655118115435e-08,
        1.0,
        1.0
      ],
      "min": [
        -1.0,
        -1.0,
        -1.0
      ],
      "type": "VEC3"
    },
    {
      "bufferView": 1,
      "byteOffset": 107856,
      "componentType": 5126,
      "count": 250,
      "max": [
        0.8190374374389648,
        0.9444991946220398
      ],
      "min": [
        0.18069948256015778,
        0.30550092458724976
      ],
      "type": "VEC2"
    },
    {
      "bufferView": 0,
      "byteOffset": 294264,
      "componentType": 5125,
      "count": 732,
      "type": "SCALAR"
    },
    {
      "bufferView": 2,
      "byteOffset": 329568,
      "componentType": 5126,
      "count": 268,
      "max": [
        1.6254433393478394,
        0.05022348091006279,
        0.5405588746070862
      ],
      "min": [
        -2.124284029006958,
        -0.05022348091006279,
        -0.9151521921157837
      ],
      "type": "VEC3"
    },
    {
      "bufferView": 2,
      "byteOffset": 332784,
      "componentType": 5126,
      "count": 268,
      "max": [
        1.0502162695047446e-07,
        1.0,
        1.0
      ],
      "min": [
        -1.0,
        -1.0,
        -1.0
      ],
      "type": "VEC3"
    },
    {
      "bufferView": 1,
      "byteOffset": 109856,
      "componentType": 5126,
      "count": 268,
      "max": [
        1.0,
        1.0
      ],
      "min": [
        0.0,
        0.01000000536441803
      ],
      "type": "VEC2"
    },
    {
      "bufferView": 0,
      "byteOffset": 297192,
      "componentType": 5125,
      "count": 762,
      "type": "SCALAR"
    },
    {
      "bufferView": 2,
      "byteOffset": 336000,
      "componentType": 5126,
      "count": 112,
      "max": [
        -2.107952833175659,
        0.018116550520062447,
        -0.3368110656738281
      ],
      "min": [
        -2.1079530715942383,
        -0.018116550520062447,
        -0.5514288544654846
      ],
      "type": "VEC3"
    },
    {
      "bufferView": 2,
      "byteOffset": 337344,
      "componentType": 5126,
      "count": 112,
      "max": [
        -1.0,
        0.0,
        1.312386302743107e-06
      ],
      "min": [
        -1.0,
        0.0,
        6.561934924320667e-07
      ],
      "type": "VEC3"
    },
    {
      "bufferView": 1,
      "byteOffset": 112000,
      "componentType": 5126,
      "count": 112,
      "max": [
        0.625,
        0.75
      ],
      "min": [
        0.375,
        0.5
      ],
      "type": "VEC2"
    },
    {
      "bufferView": 0,
      "byteOffset": 300240,
      "componentType": 5125,
      "count": 312,
      "type": "SCALAR"
    },
    {
      "bufferView": 2,
      "byteOffset": 338688,
      "componentType": 5126,
      "count": 8064,
      "max": [
        0.7526723742485046,
        0.038441453129053116,
        1.0442593097686768
      ],
      "min": [
        0.3162310719490051,
        -0.038441456854343414,
        0.9333169460296631
      ],
      "type": "VEC3"
    },
    {
      "bufferView": 2,
      "byteOffset": 435456,
      "componentType": 5126,
      "count": 8064,
      "max": [
        0.9996380805969238,
        0.9999998807907104,
        0.9998306632041931
      ],
      "min": [
        -0.9996379613876343,
        -0.9999998807907104,
        -0.9978265166282654
      ],
      "type": "VEC3"
    },
    {
      "bufferView": 1,
      "byteOffset": 112896,
      "componentType": 5126,
      "count": 8064,
      "max": [
        0.8750001192092896,
        1.0000001192092896
      ],
      "min": [
        0.125,
        0.0
      ],
      "type": "VEC2"
    },
    {
      "bufferView": 0,
      "byteOffset": 301488,
      "componentType": 5125,
      "count": 12096,
      "type": "SCALAR"
    },
    {
      "bufferView": 2,
      "byteOffset": 532224,
      "componentType": 5126,
      "count": 21504,
      "max": [
        0.43692606687545776,
        0.03853423520922661,
        0.08089952170848846
      ],
      "min": [
        -0.43692630529403687,
        -0.03853423148393631,
        -0.03356480225920677
      ],
      "type": "VEC3"
    },
    {
      "bufferView": 2,
      "byteOffset": 790272,
      "componentType": 5126,
      "count": 21504,
      "max": [
        0.9996134638786316,
        0.999996542930603,
        0.9970303177833557
      ],
      "min": [
        -0.9996134638786316,
        -0.999996542930603,
        -0.9998350143432617
      ],
      "type": "VEC3"
    },
    {
      "bufferView": 1,
      "byteOffset": 177408,
      "componentType": 5126,
      "count": 21504,
      "max": [
        0.8750001192092896,
        1.0000001192092896
      ],
      "min": [
        0.125,
        0.0
      ],
      "type": "VEC2"
    },
    {
      "bufferView": 0,
      "byteOffset": 349872,
      "componentType": 5125,
      "count": 32256,
      "type": "SCALAR"
    },
    {
      "bufferView": 2,
      "byteOffset": 1048320,
      "componentType": 5126,
      "count": 288,
      "max": [
        2.0832865238189697,
        0.0899067372083664,
        0.9585384726524353
      ],
      "min": [
        -2.0832865238189697,
        0.08990593999624252,
        -0.9585385322570801
      ],
      "type": "VEC3"
    },
    {
      "bufferView": 2,
      "byteOffset": 1051776,
      "componentType": 5126,
      "count": 288,
      "max": [
        -4.6039221324178925e-09,
        1.0,
        1.0324948673812173e-09
      ],
      "min": [
        -4.6039221324178925e-09,
        1.0,
        1.0324948673812173e-09
      ],
      "type": "VEC3"
    },
    {
      "bufferView": 1,
      "byteOffset": 349440,
      "componentType": 5126,
      "count": 288,
      "max": [
        0.8726029396057129,
        0.7449491024017334
      ],
      "min": [
        0.6224907636642456,
        0.5050510168075562
      ],
      "type": "VEC2"
    },
    {
      "bufferView": 0,
      "byteOffset": 478896,
      "componentType": 5125,
      "count": 858,
      "type": "SCALAR"
    },
    {
      "bufferView": 2,
      "byteOffset": 1055232,
      "componentType": 5126,
      "count": 2090,
      "max": [
        2.1245150566101074,
        0.08320879936218262,
        0.9991697669029236
      ],
      "min": [
        -2.124514579772949,
        -0.07760228216648102,
        -0.999169647693634
      ],
      "type": "VEC3"
    },
    {
      "bufferView": 2,
      "byteOffset": 1080312,
      "componentType": 5126,
      "count": 2090,
      "max": [
        0.9999990463256836,
        0.0013783673057332635,
        0.9999990463256836
      ],
      "min": [
        -0.9999990463256836,
        -1.0,
        -0.9999990463256836
      ],
      "type": "VEC3"
    },
    {
      "bufferView": 1,
      "byteOffset": 351744,
      "componentType": 5126,
      "count": 2090,
      "max": [
        1.0,
        1.0000001192092896
      ],
      "min": [
        0.0,
        0.0
      ],
      "type": "VEC2"
    },
    {
      "bufferView": 0,
      "byteOffset": 482328,
      "componentType": 5125,
      "count": 10362,
      "type": "SCALAR"
    },
    {
      "bufferView": 2,
      "byteOffset": 1105392,
      "componentType": 5126,
      "count": 151,
      "max": [
        1.9034242630004883,
        -0.07760228216648102,
        0.7692345380783081
      ],
      "min": [
        -1.8634538650512695,
        -0.07760228216648102,
        -0.04066064581274986
      ],
      "type": "VEC3"
    },
    {
      "bufferView": 2,
      "byteOffset": 1107204,
      "componentType": 5126,
      "count": 151,
      "max": [
        1.827582707392139e-08,
        1.0,
        -0.0
      ],
      "min": [
        -3.575273410660884e-08,
        1.0,
        -0.0
      ],
      "type": "VEC3"
    },
    {
      "bufferView": 1,
      "byteOffset": 368464,
      "componentType": 5126,
      "count": 151,
      "max": [
        0.0,
        0.0
      ],
      "min": [
        0.0,
        0.0
      ],
      "type": "VEC2"
    },
    {
      "bufferView": 0,
      "byteOffset": 523776,
      "componentType": 5125,
      "count": 426,
      "type": "SCALAR"
    },
    {
      "bufferView": 2,
      "byteOffset": 1109016,
      "componentType": 5126,
      "count": 483,
      "max": [
        1.6747239828109741,
        -0.07760228216648102,
        0.6937766075134277
      ],
      "min": [
        -1.7339637279510498,
        -0.0776023119688034,
        0.025299400091171265
      ],
      "type": "VEC3"
    },
    {
      "bufferView": 2,
      "byteOffset": 1114812,
      "componentType": 5126,
      "count": 483,
      "max": [
        0.98945552110672,
        1.0,
        0.9980165362358093
      ],
      "min": [
        -0.98945552110672,
        0.0,
        -0.9964819550514221
      ],
      "type": "VEC3"
    },
    {
      "bufferView": 1,
      "byteOffset": 369672,
      "componentType": 5126,
      "count": 483,
      "max": [
        1.0,
        0.5
      ],
      "min": [
        0.0,
        0.01000000536441803
      ],
      "type": "VEC2"
    },
    {
      "bufferView": 0,
      "byteOffset": 525480,
      "componentType": 5125,
      "count": 855,
      "type": "SCALAR"
    },
    {
      "bufferView": 2,
      "byteOffset": 1120608,
      "componentType": 5126,
      "count": 576,
      "max": [
        -0.4922569990158081,
        1.0,
        1.0
      ],
      "min": [
        -7.65123176574707,
        -1.0,
        -1.0
      ],
      "type": "VEC3"
    },
    {
      "bufferView": 2,
      "byteOffset": 1127520,
      "componentType": 5126,
      "count": 576,
      "max": [
        0.9951848387718201,
        1.0,
        0.9951847791671753
      ],
      "min": [
        -0.9951848387718201,
        -1.0,
        -0.9951847791671753
      ],
      "type": "VEC3"
    },
    {
      "bufferView": 1,
      "byteOffset": 373536,
      "componentType": 5126,
      "count": 576,
      "max": [
        1.0,
        1.0
      ],
      "min": [
        0.0,
        0.01000000536441803
      ],
      "type": "VEC2"
    },
    {
      "bufferView": 0,
      "byteOffset": 528900,
      "componentType": 5125,
      "count": 1116,
      "type": "SCALAR"
    },
    {
      "bufferView": 2,
      "byteOffset": 1134432,
      "componentType": 5126,
      "count": 192,
      "max": [
        1.0,
        1.0,
        1.0
      ],
      "min": [
        -1.0,
        -1.0,
        -1.0
      ],
      "type": "VEC3"
    },
    {
      "bufferView": 2,
      "byteOffset": 1136736,
      "componentType": 5126,
      "count": 192,
      "max": [
        0.9951847195625305,
        1.0,
        0.9951847195625305
      ],
      "min": [
        -0.9951847195625305,
        -1.0,
        -0.9951847195625305
      ],
      "type": "VEC3"
    },
    {
      "bufferView": 1,
      "byteOffset": 378144,
      "componentType": 5126,
      "count": 192,
      "max": [
        1.0,
        1.0
      ],
      "min": [
        0.0,
        0.01000000536441803
      ],
      "type": "VEC2"
    },
    {
      "bufferView": 0,
      "byteOffset": 533364,
      "componentType": 5125,
      "count": 372,
      "type": "SCALAR"
    }
  ],
  "asset": {
    "extras": {
      "author": "Cookiecrafter (https://sketchfab.com/Cookiecrafter)",
      "license": "CC-BY-4.0 (http://creativecommons.org/licenses/by/4.0/)",
      "source": "https://sketchfab.com/3d-models/no-brand-phone-72a16ec529bd49f2a8380df05c4305a1",
      "title": "No Brand Phone"
    },
    "generator": "Sketchfab-14.70.0",
    "version": "2.0"
  },
  "bufferViews": [
    {
      "buffer": 0,
      "byteLength": 534852,
      "name": "floatBufferViews",
      "target": 34963
    },
    {
      "buffer": 0,
      "byteLength": 379680,
      "byteOffset": 534852,
      "byteStride": 8,
      "name": "floatBufferViews",
      "target": 34962
    },
    {
      "buffer": 0,
      "byteLength": 1139040,
      "byteOffset": 914532,
      "byteStride": 12,
      "name": "floatBufferViews",
      "target": 34962
    }
  ],
  "buffers": [
    {
      "byteLength": 2053572,
      "uri": "scene.bin"
    }
  ],
  "materials": [
    {
      "doubleSided": true,
      "name": "Casing",
      "pbrMetallicRoughness": {
        "baseColorFactor": [
          0.0,
          0.0,
          0.0,
          1.0
        ],
        "metallicFactor": 0.0,
        "roughnessFactor": 0.122047
      }
    },
    {
      "doubleSided": true,
      "name": "charging_port",
      "pbrMetallicRoughness": {
        "baseColorFactor": [
          0.0765786,
          0.0765786,
          0.0765786,
          1.0
        ],
        "roughnessFactor": 0.5
      }
    },
    {
      "doubleSided": true,
      "name": "inners",
      "pbrMetallicRoughness": {
        "baseColorFactor": [
          0.0607183,
          0.0607183,
          0.0607183,
          1.0
        ],
        "roughnessFactor": 0.283465
      }
    },
    {
      "doubleSided": true,
      "name": "speaker",
      "pbrMetallicRoughness": {
        "baseColorFactor": [
          0.0,
          0.0,
          0.0,
          1.0
        ],
        "metallicFactor": 0.0
      }
    },
    {
      "doubleSided": true,
      "name": "display",
      "pbrMetallicRoughness": {
        "baseColorFactor": [
          0.0,
          0.0,
          0.0,
          1.0
        ],
        "metallicFactor": 0.0,
        "roughnessFactor": 0.0
      }
    },
    {
      "doubleSided": true,
      "name": "Material"
    },
    {
      "doubleSided": true,
      "name": "camera",
      "pbrMetallicRoughness": {
        "baseColorFactor": [
          0.0,
          0.0,
          0.0,
          1.0
        ],
        "roughnessFactor": 0.0
      }
    },
    {
      "doubleSided": true,
      "name": "flashlight",
      "pbrMetallicRoughness": {
        "metallicFactor": 0.0,
        "roughnessFactor": 0.0
      }
    }
  ],
  "meshes": [
    {
      "name": "Object_0",
      "primitives": [
        {
          "attributes": {
            "NORMAL": 1,
            "POSITION": 0,
            "TEXCOORD_0": 2
          },
          "indices": 3,
          "material": 0,
          "mode": 4
        }
      ]
    },
    {
      "name": "Object_1",
      "primitives": [
        {
          "attributes": {
            "NORMAL": 5,
            "POSITION": 4,
            "TEXCOORD_0": 6
          },
          "indices": 7,
          "material": 1,
          "mode": 4
        }
      ]
    },
    {
      "name": "Object_2",
      "primitives": [
        {
          "attributes": {
            "NORMAL": 9,
            "POSITION": 8,
            "TEXCOORD_0": 10
          },
          "indices": 11,
          "material": 2,
          "mode": 4
        }
      ]
    },
    {
      "name": "Object_3",
      "primitives": [
        {
          "attributes": {
            "NORMAL": 13,
            "POSITION": 12,
            "TEXCOORD_0": 14
          },
          "indices": 15,
          "material": 3,
          "mode": 4
        }
      ]
    },
    {
      "name": "Object_4",
      "primitives": [
        {
          "attributes": {
            "NORMAL": 17,
            "POSITION": 16,
            "TEXCOORD_0": 18
          },
          "indices": 19,
          "material": 0,
          "mode": 4
        }
      ]
    },
    {
      "name": "Object_5",
      "primitives": [
        {
          "attributes": {
            "NORMAL": 21,
            "POSITION": 20,
            "TEXCOORD_0": 22
          },
          "indices": 23,
          "material": 0,
          "mode": 4
        }
      ]
    },
    {
      "name": "Object_6",
      "primitives": [
        {
          "attributes": {
            "NORMAL": 25,
            "POSITION": 24,
            "TEXCOORD_0": 26
          },
          "indices": 27,
          "material": 4,
          "mode": 4
        }
      ]
    },
    {
      "name": "Object_7",
      "primitives": [
        {
          "attributes": {
            "NORMAL": 29,
            "POSITION": 28,
            "TEXCOORD_0": 30
          },
          "indices": 31,
          "material": 0,
          "mode": 4
        }
      ]
    },
    {
      "name": "Object_8",
      "primitives": [
        {
          "attributes": {
            "NORMAL": 33,
            "POSITION": 32,
            "TEXCOORD_0": 34
          },
          "indices": 35,
          "material": 5,
          "mode": 4
        }
      ]
    },
    {
      "name": "Object_9",
      "primitives": [
        {
          "attributes": {
            "NORMAL": 37,
            "POSITION": 36,
            "TEXCOORD_0": 38
          },
          "indices": 39,
          "material": 6,
          "mode": 4
        }
      ]
    },
    {
      "name": "Object_10",
      "primitives": [
        {
          "attributes": {
            "NORMAL": 41,
            "POSITION": 40,
            "TEXCOORD_0": 42
          },
          "indices": 43,
          "material": 6,
          "mode": 4
        }
      ]
    },
    {
      "name": "Object_11",
      "primitives": [
        {
          "attributes": {
            "NORMAL": 45,
            "POSITION": 44,
            "TEXCOORD_0": 46
          },
          "indices": 47,
          "material": 7,
          "mode": 4
        }
      ]
    }
  ],
  "nodes": [
    {
      "children": [
        1
      ],
      "matrix": [
        0.2720513939857483,
        0.9622827172279358,
        2.1366968577306262e-16,
        0.0,
        0.0,
        2.220446049250313e-16,
        -1.0,
        0.0,
        -0.9622827172279358,
        0.2720513939857483,
        6.040754429686952e-17,
        0.0,
        0.0,
        0.0,
        0.0,
        1.0
      ],
      "name": "Sketchfab_model"
    },
    {
      "children": [
        2
      ],
      "name": "root"
    },
    {
      "children": [
        3,
        8,
        10,
        12,
        14,
        16,
        19,
        21
      ],
      "matrix": [
        1.0,
        0.0,
        0.0,
        0.0,
        0.0,
        2.220446049250313e-16,
        1.0,
        0.0,
        0.0,
        -1.0,
        2.220446049250313e-16,
        0.0,
        0.0,
        0.0,
        0.0,
        1.0
      ],
      "name": "GLTF_SceneRootNode"
    },
    {
      "children": [
        4,
        5,
        6,
        7
      ],
      "name": "phone_0"
    },
    {
      "mesh": 0,
      "name": "Object_4"
    },
    {
      "mesh": 1,
      "name": "Object_5"
    },
    {
      "mesh": 2,
      "name": "Object_6"
    },
    {
      "mesh": 3,
      "name": "Object_7"
    },
    {
      "children": [
        9
      ],
      "name": "onoff switch_1"
    },
    {
      "mesh": 4,
      "name": "Object_9"
    },
    {
      "children": [
        11
      ],
      "matrix": [
        1.0,
        0.0,
        0.0,
        0.0,
        0.0,
        1.0,
        0.0,
        0.0,
        0.0,
        0.0,
        0.9719663858413696,
        0.0,
        0.7462763786315918,
        0.0,
        -1.005133867263794,
        1.0
      ],
      "name": "volume_2"
    },
    {
      "mesh": 5,
      "name": "Object_11"
    },
    {
      "children": [
        13
      ],
      "name": "phone.002_3"
    },
    {
      "mesh": 6,
      "name": "Object_13"
    },
    {
      "children": [
        15
      ],
      "matrix": [
        0.26119565963745117,
        0.0,
        0.0,
        0.0,
        0.0,
        0.3720880150794983,
        0.0,
        0.0,
        0.0,
        0.0,
        0.3720880150794983,
        0.0,
        1.2417168617248535,
        -0.11783207207918167,
        0.36865943670272827,
        1.0
      ],
      "name": "phone.003_4"
    },
    {
      "mesh": 7,
      "name": "Object_15"
    },
    {
      "children": [
        17,
        18
      ],
      "matrix": [
        0.26119565963745117,
        0.0,
        0.0,
        0.0,
        0.0,
        0.3720880150794983,
        0.0,
        0.0,
        0.0,
        0.0,
        0.3720880150794983,
        0.0,
        1.2417168617248535,
        -0.11255324631929398,
        0.36865943670272827,
        1.0
      ],
      "name": "phone.001_5"
    },
    {
      "mesh": 8,
      "name": "Object_17"
    },
    {
      "mesh": 9,
      "name": "Object_18"
    },
    {
      "children": [
        20
      ],
      "matrix": [
        0.12436619400978088,
        0.0,
        0.0,
        0.0,
        0.0,
        0.008185182698071003,
        0.0,
        0.0,
        0.0,
        0.0,
        0.12436619400978088,
        0.0,
        1.7403676509857178,
        -0.13324296474456787,
        0.5024392604827881,
        1.0
      ],
      "name": "camera_8"
    },
    {
      "mesh": 10,
      "name": "Object_20"
    },
    {
      "children": [
        22
      ],
      "matrix": [
        0.08104097843170166,
        0.0,
        0.0,
        0.0,
        0.0,
        0.008518870919942856,
        0.0,
        0.0,
        0.0,
        0.0,
        0.08104097843170166,
        0.0,
        0.9063711166381836,
        -0.13614855706691742,
        0.18589937686920166,
        1.0
      ],
      "name": "flashlight_9"
    },
    {
      "mesh": 11,
      "name": "Object_22"
    }
  ],
  "scene": 0,
  "scenes": [
    {
      "name": "Sketchfab_Scene",
      "nodes": [
        0
      ]
    }
  ]
}
