{
  "accessors": [
    {
      "bufferView": 2,
      "componentType": 5126,
      "count": 4370,
      "max": [
        1.5339561700820923,
        0.1633446216583252,
        0.1513199508190155
      ],
      "min": [
        -1.5339561700820923,
        -0.29414746165275574,
        -0.8678542971611023
      ],
      "type": "VEC3"
    },
    {
      "bufferView": 2,
      "byteOffset": 52440,
      "componentType": 5126,
      "count": 4370,
      "max": [
        0.9999942779541016,
        0.9999569654464722,
        0.999954104423523
      ],
      "min": [
        -0.9999942779541016,
        -0.9992198944091797,
        -0.9999871253967285
      ],
      "type": "VEC3"
    },
    {
      "bufferView": 3,
      "componentType": 5126,
      "count": 4370,
      "max": [
        0.9999268651008606,
        0.9999699592590332,
        0.9999690651893616,
        1.0
      ],
      "min": [
        -0.9999604225158691,
        -0.9999998807907104,
        -0.8599857687950134,
        -1.0
      ],
      "type": "VEC4"
    },
    {
      "bufferView": 1,
      "componentType": 5126,
      "count": 4370,
      "max": [
        0.6512396335601807,
        0.7760859131813049
      ],
      "min": [
        0.0002914064971264452,
        0.0
      ],
      "type": "VEC2"
    },
    {
      "bufferView": 0,
      "componentType": 5125,
      "count": 18624,
      "type": "SCALAR"
    },
    {
      "bufferView": 2,
      "byteOffset": 104880,
      "componentType": 5126,
      "count": 98,
      "max": [
        1.4575239419937134,
        0.49914389848709106,
        0.023916732519865036
      ],
      "min": [
        -1.4575239419937134,
        -0.48128604888916016,
        -0.20920529961585999
      ],
      "type": "VEC3"
    },
    {
      "bufferView": 2,
      "byteOffset": 106056,
      "componentType": 5126,
      "count": 98,
      "max": [
        0.41021186113357544,
        0.17869094014167786,
        0.9991538524627686
      ],
      "min": [
        -0.41021186113357544,
        -0.379351943731308,
        0.9022091627120972
      ],
      "type": "VEC3"
    },
    {
      "bufferView": 3,
      "byteOffset": 69920,
      "componentType": 5126,
      "count": 98,
      "max": [
        0.16843123733997345,
        0.9996511936187744,
        0.37860307097435,
        1.0
      ],
      "min": [
        -0.11990910768508911,
        0.9247847199440002,
        -0.18860000371932983,
        1.0
      ],
      "type": "VEC4"
    },
    {
      "bufferView": 1,
      "byteOffset": 34960,
      "componentType": 5126,
      "count": 98,
      "max": [
        0.4712485074996948,
        0.5671674609184265
      ],
      "min": [
        0.24038854241371155,
        0.0
      ],
      "type": "VEC2"
    },
    {
      "bufferView": 0,
      "byteOffset": 74496,
      "componentType": 5125,
      "count": 432,
      "type": "SCALAR"
    },
    {
      "bufferView": 2,
      "byteOffset": 107232,
      "componentType": 5126,
      "count": 1973,
      "max": [
        1.5327898263931274,
        0.3247475326061249,
        0.09104930609464645
      ],
      "min": [
        -1.5327898263931274,
        0.1306309700012207,
        -0.029011592268943787
      ],
      "type": "VEC3"
    },
    {
      "bufferView": 2,
      "byteOffset": 130908,
      "componentType": 5126,
      "count": 1973,
      "max": [
        0.9999754428863525,
        0.9999996423721313,
        0.9996728897094727
      ],
      "min": [
        -0.9999752044677734,
        -0.9999927282333374,
        -0.9996457099914551
      ],
      "type": "VEC3"
    },
    {
      "bufferView": 3,
      "byteOffset": 71488,
      "componentType": 5126,
      "count": 1973,
      "max": [
        0.999993085861206,
        0.9999997615814209,
        0.9999938607215881,
        1.0
      ],
      "min": [
        -0.9999930262565613,
        -0.9982048273086548,
        -0.9999925494194031,
        -1.0
      ],
      "type": "VEC4"
    },
    {
      "bufferView": 1,
      "byteOffset": 35744,
      "componentType": 5126,
      "count": 1973,
      "max": [
        0.6509886980056763,
        0.6534538865089417
      ],
      "min": [
        0.11514509469270706,
        0.36586982011795044
      ],
      "type": "VEC2"
    },
    {
      "bufferView": 0,
      "byteOffset": 76224,
      "componentType": 5125,
      "count": 6960,
      "type": "SCALAR"
    },
    {
      "bufferView": 2,
      "byteOffset": 154584,
      "componentType": 5126,
      "count": 2013,
      "max": [
        1.5313949584960938,
        3.261645793914795,
        0.09072133898735046
      ],
      "min": [
        -1.5313948392868042,
        0.2806023061275482,
        -0.47968488931655884
      ],
      "type": "VEC3"
    },
    {
      "bufferView": 2,
      "byteOffset": 178740,
      "componentType": 5126,
      "count": 2013,
      "max": [
        0.9997260570526123,
        0.999911904335022,
        0.9870808124542236
      ],
      "min": [
        -0.9997260570526123,
        -0.999930739402771,
        -0.9994633197784424
      ],
      "type": "VEC3"
    },
    {
      "bufferView": 3,
      "byteOffset": 103056,
      "componentType": 5126,
      "count": 2013,
      "max": [
        0.9993677139282227,
        0.9868624210357666,
        0.9106779098510742,
        1.0
      ],
      "min": [
        -0.9988526701927185,
        -0.9844178557395935,
        -0.9972704648971558,
        1.0
      ],
      "type": "VEC4"
    },
    {
      "bufferView": 1,
      "byteOffset": 51528,
      "componentType": 5126,
      "count": 2013,
      "max": [
        1.0000001192092896,
        1.0000001192092896
      ],
      "min": [
        0.22218289971351624,
        0.0
      ],
      "type": "VEC2"
    },
    {
      "bufferView": 0,
      "byteOffset": 104064,
      "componentType": 5125,
      "count": 9120,
      "type": "SCALAR"
    },
    {
      "bufferView": 2,
      "byteOffset": 202896,
      "componentType": 5126,
      "count": 272,
      "max": [
        1.5022042989730835,
        0.030484076589345932,
        -0.39638909697532654
      ],
      "min": [
        -1.5022042989730835,
        -0.005383459851145744,
        -0.4075196385383606
      ],
      "type": "VEC3"
    },
    {
      "bufferView": 2,
      "byteOffset": 206160,
      "componentType": 5126,
      "count": 272,
      "max": [
        0.8450673222541809,
        0.7278891205787659,
        0.8116807341575623
      ],
      "min": [
        -0.8450673222541809,
        -0.7278891205787659,
        -0.8116807341575623
      ],
      "type": "VEC3"
    },
    {
      "bufferView": 3,
      "byteOffset": 135264,
      "componentType": 5126,
      "count": 272,
      "max": [
        0.9714503884315491,
        0.7821688055992126,
        0.8183258175849915,
        1.0
      ],
      "min": [
        -0.9714534282684326,
        -0.988644540309906,
        -0.8348686099052429,
        -1.0
      ],
      "type": "VEC4"
    },
    {
      "bufferView": 1,
      "byteOffset": 67632,
      "componentType": 5126,
      "count": 272,
      "max": [
        0.2353004813194275,
        0.5084956288337708
      ],
      "min": [
        0.22640976309776306,
        0.3435799777507782
      ],
      "type": "VEC2"
    },
    {
      "bufferView": 0,
      "byteOffset": 140544,
      "componentType": 5125,
      "count": 744,
      "type": "SCALAR"
    }
  ],
  "asset": {
    "extras": {
      "author": "Berk Gedik (https://sketchfab.com/berkgedik)",
      "license": "CC-BY-4.0 (http://creativecommons.org/licenses/by/4.0/)",
      "source": "https://sketchfab.com/3d-models/mustang-sunglasses-mu-1683-eeec9fbb427246959acee4e4266b0f0a",
      "title": "Mustang Sunglasses - MU 1683"
    },
    "generator": "Sketchfab-12.67.0",
    "version": "2.0"
  },
  "bufferViews": [
    {
      "buffer": 0,
      "byteLength": 143520,
      "name": "floatBufferViews",
      "target": 34963
    },
    {
      "buffer": 0,
      "byteLength": 69808,
      "byteOffset": 143520,
      "byteStride": 8,
      "name": "floatBufferViews",
      "target": 34962
    },
    {
      "buffer": 0,
      "byteLength": 209424,
      "byteOffset": 213328,
      "byteStride": 12,
      "name": "floatBufferViews",
      "target": 34962
    },
    {
      "buffer": 0,
      "byteLength": 139616,
      "byteOffset": 422752,
      "byteStride": 16,
      "name": "floatBufferViews",
      "target": 34962
    }
  ],
  "buffers": [
    {
      "byteLength": 562368,
      "uri": "scene.bin"
    }
  ],
  "images": [
    {
      "uri": "textures/Mustang_baseColor.png"
    },
    {
      "uri": "textures/Mustang_metallicRoughness.png"
    },
    {
      "uri": "textures/Mustang_normal.png"
    }
  ],
  "materials": [
    {
      "alphaMode": "BLEND",
      "doubleSided": true,
      "name": "Mustang",
      "normalTexture": {
        "index": 2
      },
      "occlusionTexture": {
        "index": 1
      },
      "pbrMetallicRoughness": {
        "baseColorTexture": {
          "index": 0
        },
        "metallicRoughnessTexture": {
          "index": 1
        }
      }
    }
  ],
  "meshes": [
    {
      "name": "Cube_Mustang_0",
      "primitives": [
        {
          "attributes": {
            "NORMAL": 1,
            "POSITION": 0,
            "TANGENT": 2,
            "TEXCOORD_0": 3
          },
          "indices": 4,
          "material": 0,
          "mode": 4
        }
      ]
    },
    {
      "name": "Plane_Mustang_0",
      "primitives": [
        {
          "attributes": {
            "NORMAL": 6,
            "POSITION": 5,
            "TANGENT": 7,
            "TEXCOORD_0": 8
          },
          "indices": 9,
          "material": 0,
          "mode": 4
        }
      ]
    },
    {
      "name": "Cube.003_Mustang_0",
      "primitives": [
        {
          "attributes": {
            "NORMAL": 11,
            "POSITION": 10,
            "TANGENT": 12,
            "TEXCOORD_0": 13
          },
          "indices": 14,
          "material": 0,
          "mode": 4
        }
      ]
    },
    {
      "name": "Cube.004_Mustang_0",
      "primitives": [
        {
          "attributes": {
            "NORMAL": 16,
            "POSITION": 15,
            "TANGENT": 17,
            "TEXCOORD_0": 18
          },
          "indices": 19,
          "material": 0,
          "mode": 4
        }
      ]
    },
    {
      "name": "Cube.005_Mustang_0",
      "primitives": [
        {
          "attributes": {
            "NORMAL": 21,
            "POSITION": 20,
            "TANGENT": 22,
            "TEXCOORD_0": 23
          },
          "indices": 24,
          "material": 0,
          "mode": 4
        }
      ]
    }
  ],
  "nodes": [
    {
      "children": [
        1
      ],
      "matrix": [
        1.0,
        0.0,
        0.0,
        0.0,
        0.0,
        2.220446049250313e-16,
        -1.0,
        0.0,
        0.0,
        1.0,
        2.220446049250313e-16,
        0.0,
        0.0,
        0.0,
        0.0,
        1.0
      ],
      "name": "Sketchfab_model"
    },
    {
      "children": [
        2
      ],
      "matrix": [
        1.0,
        0.0,
        0.0,
        0.0,
        0.0,
        0.0,
        1.0,
        0.0,
        0.0,
        -1.0,
        0.0,
        0.0,
        0.0,
        0.0,
        0.0,
        1.0
      ],
      "name": "Mustang.fbx"
    },
    {
      "children": [
        3,
        5,
        8,
        10,
        12,
        14,
        16
      ],
      "name": "RootNode"
    },
    {
      "children": [
        4
      ],
      "matrix": [
        100.0,
        0.0,
        0.0,
        0.0,
        0.0,
        -1.629206793918314e-05,
        -99.99999999999868,
        0.0,
        0.0,
        99.99999999999868,
        -1.629206793918314e-05,
        0.0,
        0.0,
        37.01373291015625,
        4.973122031515231e-06,
        1.0
      ],
      "name": "Cube"
    },
    {
      "mesh": 0,
      "name": "Cube_Mustang_0"
    },
    {
      "children": [
        6
      ],
      "matrix": [
        -29.08647719990347,
        -5.518906457566863,
        -95.51711910171437,
        0.0,
        56.63930913109449,
        79.46723428563203,
        -21.83912397841966,
        0.0,
        77.11008775993375,
        -60.45246356562044,
        -19.98834696773717,
        0.0,
        407.6245422363281,
        590.38623046875,
        -100.54539489746094,
        1.0
      ],
      "name": "Light"
    },
    {
      "children": [
        7
      ],
      "matrix": [
        1.0,
        0.0,
        0.0,
        0.0,
        0.0,
        2.220446049250313e-16,
        1.0,
        0.0,
        0.0,
        -1.0,
        2.220446049250313e-16,
        0.0,
        0.0,
        0.0,
        0.0,
        1.0
      ],
      "name": "Object_6"
    },
    {
      "name": "Object_7"
    },
    {
      "children": [
        9
      ],
      "matrix": [
        -65.15583280329096,
        -44.52713576570858,
        -61.41703047373549,
        0.0,
        -32.40134137821245,
        89.53957451233616,
        -30.542088974418615,
        0.0,
        68.59205472129975,
        -1.0718647115348782e-05,
        -72.7676336239627,
        0.0,
        735.88916015625,
        495.8309326171875,
        692.5791015625,
        1.0
      ],
      "name": "Camera"
    },
    {
      "name": "Object_9"
    },
    {
      "children": [
        11
      ],
      "matrix": [
        100.0,
        0.0,
        0.0,
        0.0,
        0.0,
        99.9999999999999,
        4.371138828673792e-06,
        0.0,
        0.0,
        -4.371138828673792e-06,
        99.9999999999999,
        0.0,
        0.0,
        -1.862645149230957e-07,
        17.68038558959961,
        1.0
      ],
      "name": "Plane"
    },
    {
      "mesh": 1,
      "name": "Plane_Mustang_0"
    },
    {
      "children": [
        13
      ],
      "matrix": [
        100.0,
        0.0,
        0.0,
        0.0,
        0.0,
        -1.629206793918314e-05,
        -99.99999999999868,
        0.0,
        0.0,
        99.99999999999868,
        -1.629206793918314e-05,
        0.0,
        0.0,
        37.01373291015625,
        4.973122031515231e-06,
        1.0
      ],
      "name": "Cube.003"
    },
    {
      "mesh": 2,
      "name": "Cube.003_Mustang_0"
    },
    {
      "children": [
        15
      ],
      "matrix": [
        100.0,
        0.0,
        0.0,
        0.0,
        0.0,
        -1.629206793918314e-05,
        -99.99999999999868,
        0.0,
        0.0,
        99.99999999999868,
        -1.629206793918314e-05,
        0.0,
        0.0,
        37.01373291015625,
        4.973122031515231e-06,
        1.0
      ],
      "name": "Cube.004"
    },
    {
      "mesh": 3,
      "name": "Cube.004_Mustang_0"
    },
    {
      "children": [
        17
      ],
      "matrix": [
        100.0,
        0.0,
        0.0,
        0.0,
        0.0,
        -1.629206793918314e-05,
        -99.99999999999868,
        0.0,
        0.0,
        99.99999999999868,
        -1.629206793918314e-05,
        0.0,
        0.0,
        85.83484649658203,
        -21.193683624267578,
        1.0
      ],
      "name": "Cube.005"
    },
    {
      "mesh": 4,
      "name": "Cube.005_Mustang_0"
    }
  ],
  "samplers": [
    {
      "magFilter": 9729,
      "minFilter": 9987,
      "wrapS": 10497,
      "wrapT": 10497
    }
  ],
  "scene": 0,
  "scenes": [
    {
      "name": "Sketchfab_Scene",
      "nodes": [
        0
      ]
    }
  ],
  "textures": [
    {
      "sampler": 0,
      "source": 0
    },
    {
      "sampler": 0,
      "source": 1
    },
    {
      "sampler": 0,
      "source": 2
    }
  ]
}
